<?xml version="1.0" encoding="UTF-8" standalone="no"?>
<svg
   xmlns:dc="http://purl.org/dc/elements/1.1/"
   xmlns:cc="http://creativecommons.org/ns#"
   xmlns:rdf="http://www.w3.org/1999/02/22-rdf-syntax-ns#"
   xmlns:svg="http://www.w3.org/2000/svg"
   xmlns="http://www.w3.org/2000/svg"
   xmlns:sodipodi="http://sodipodi.sourceforge.net/DTD/sodipodi-0.dtd"
   xmlns:inkscape="http://www.inkscape.org/namespaces/inkscape"
   version="1.0"
   width="913.000000pt"
   height="611.000000pt"
   viewBox="0 0 913.000000 611.000000"
   preserveAspectRatio="xMidYMid meet"
   id="svg2"
   inkscape:version="0.48.4 r9939"
   sodipodi:docname="Panchayat.svg">
  <defs
     id="defs24" />
  <sodipodi:namedview
     pagecolor="#ffffff"
     bordercolor="#666666"
     borderopacity="1"
     objecttolerance="10"
     gridtolerance="10"
     guidetolerance="10"
     inkscape:pageopacity="0"
     inkscape:pageshadow="2"
     inkscape:window-width="716"
     inkscape:window-height="672"
     id="namedview22"
     showgrid="false"
     inkscape:zoom="1.1520742"
     inkscape:cx="681.33973"
     inkscape:cy="425.42031"
     inkscape:window-x="-1"
     inkscape:window-y="-3"
     inkscape:window-maximized="0"
     inkscape:current-layer="svg2" />
  <metadata
     id="metadata4">
Created by potrace 1.11, written by Peter Selinger 2001-2013
<rdf:RDF>
  <cc:Work
     rdf:about="">
    <dc:format>image/svg+xml</dc:format>
    <dc:type
       rdf:resource="http://purl.org/dc/dcmitype/StillImage" />
  </cc:Work>
</rdf:RDF>
</metadata>
  <g
     transform="translate(0.000000,611.000000) scale(0.100000,-0.100000)"
     fill="#000000"
     stroke="none"
     id="g6">
    <path
       d="M4640 6055 c-24 -25 -39 -45 -32 -45 8 0 12 -19 12 -55 0 -53 -1 -55 -27 -55 -25 -1 -26 -2 -10 -14 23 -18 22 -61 -4 -85 -13 -12 -17 -21 -10 -26 6 -3 11 -29 11 -56 0 -28 7 -64 16 -81 17 -33 31 -140 41 -300 5 -91 4 -98 -13 -98 -11 0 -24 4 -29 8 -13 8 -105 171 -105 184 0 5 -4 6 -10 3 -5 -3 -10 2 -10 11 0 10 -3 14 -6 11 -4 -3 -19 11 -34 32 -38 52 -105 105 -171 135 -62 29 -120 37 -126 19 -3 -8 4 -13 16 -13 16 0 21 -6 21 -24 0 -13 -6 -26 -12 -29 -7 -2 3 -7 23 -11 38 -7 51 -17 62 -48 5 -14 -3 -20 -36 -29 -23 -7 -46 -18 -52 -24 -5 -6 -17 -15 -25 -18 -15 -7 17 -4 92 9 50 9 96 -11 105 -44 5 -22 -1 -32 -41 -66 -25 -23 -46 -47 -46 -54 0 -11 3 -10 15 1 8 8 43 20 79 26 79 14 116 3 116 -33 0 -20 -7 -26 -47 -36 -40 -10 -45 -14 -28 -20 11 -5 46 -9 77 -9 81 -1 102 -12 116 -59 20 -65 18 -67 -55 -78 -91 -15 -298 -96 -298 -117 0 -9 -15 -27 -32 -40 -45 -33 -89 -91 -125 -162 -17 -33 -36 -67 -43 -75 -8 -8 -27 -67 -42 -130 -26 -100 -28 -119 -17 -145 14 -33 13 -34 37 60 24 94 52 151 76 158 19 4 23 -1 33 -39 7 -24 15 -44 18 -44 4 0 17 34 30 76 l24 76 33 -5 c31 -5 33 -3 72 67 36 67 56 85 92 86 4 0 10 -12 14 -27 7 -27 7 -27 15 -6 18 44 60 102 87 117 15 8 48 24 73 35 25 11 57 27 73 35 34 19 46 15 131 -48 59 -44 73 -61 104 -126 l37 -75 3 56 c3 55 3 55 32 51 25 -4 32 -12 50 -59 11 -30 29 -87 40 -126 11 -38 22 -72 25 -75 3 -3 5 38 5 91 0 53 3 97 8 97 4 0 24 -11 43 -24 42 -28 54 -64 65 -188 6 -67 9 -78 25 -78 12 0 21 10 25 26 8 31 47 30 52 -1 10 -71 28 -135 37 -132 23 8 18 56 -23 210 -33 125 -205 366 -285 397 -17 8 -39 20 -48 27 -24 20 -115 43 -171 43 -45 0 -48 2 -48 26 0 14 4 34 10 44 10 19 78 45 145 55 22 3 54 8 71 11 l31 4 -38 39 c-22 21 -39 44 -39 50 0 6 17 11 38 11 20 0 60 6 87 14 l50 13 -45 23 c-53 27 -46 20 -54 46 -5 18 1 26 36 47 24 13 75 30 113 38 65 12 68 14 42 23 -26 10 -28 13 -21 51 3 22 17 51 30 66 90 96 -107 9 -263 -116 -61 -49 -87 -78 -120 -137 -24 -41 -43 -79 -43 -86 0 -7 -7 -12 -16 -12 -11 0 -14 -6 -9 -20 6 -18 2 -20 -31 -20 l-37 0 6 118 c4 80 15 152 34 229 26 101 27 114 14 142 -13 28 -12 32 12 65 l27 35 -23 3 c-18 2 -23 10 -25 48 -2 28 -11 53 -24 67 -21 22 -21 52 -1 131 8 33 -8 27 -57 -23z"
       id="path8" />
    <path
       d="M4121 6059 c-88 -17 -137 -40 -176 -79 -22 -22 -45 -40 -52 -40 -7 0 -31 -28 -54 -62 -23 -35 -47 -67 -54 -73 -16 -14 -103 -270 -120 -355 -4 -19 -25 -81 -46 -138 -22 -56 -39 -110 -39 -120 0 -19 -89 -175 -113 -200 -7 -6 -60 -21 -117 -32 -58 -11 -106 -25 -108 -30 -2 -6 -12 -10 -22 -10 -10 0 -28 -13 -40 -30 l-21 -30 -115 0 c-64 0 -120 -5 -127 -10 -64 -55 -223 -138 -279 -146 -60 -9 -151 -57 -198 -104 -37 -37 -79 -106 -95 -158 -13 -43 30 -8 65 53 47 82 99 121 200 151 104 30 176 65 227 108 60 52 81 59 188 64 98 4 102 5 173 49 62 39 83 46 154 55 46 6 95 16 109 24 52 26 141 165 155 238 4 22 15 54 25 70 10 17 25 60 34 96 9 35 22 76 30 90 7 14 16 45 20 70 20 135 102 308 185 390 81 82 133 104 255 108 l100 3 28 -35 27 -35 -37 -60 -37 -60 -47 6 c-83 10 -161 -32 -199 -108 -30 -57 -57 -170 -75 -304 -9 -66 -29 -167 -45 -225 -16 -58 -39 -145 -51 -195 -24 -97 -71 -209 -116 -277 -16 -24 -36 -59 -45 -79 -16 -35 -46 -64 -167 -161 -76 -60 -89 -83 -101 -168 -6 -41 -17 -85 -25 -97 -9 -13 -41 -36 -73 -52 -36 -19 -52 -31 -42 -34 8 -3 41 -13 73 -22 33 -9 71 -28 90 -45 l32 -30 -22 -18 c-12 -9 -33 -25 -47 -35 -14 -10 -50 -50 -80 -90 -29 -40 -76 -94 -104 -121 -45 -44 -56 -49 -104 -53 -29 -2 -64 -6 -77 -9 -23 -5 -23 -5 -5 -25 15 -17 18 -34 15 -101 -3 -94 -5 -99 -101 -233 -40 -55 -79 -115 -88 -132 -9 -18 -21 -33 -28 -33 -27 0 -275 131 -339 180 -39 29 -106 90 -150 135 -85 87 -160 132 -235 142 -41 6 -42 7 -36 37 4 17 18 96 32 176 53 301 89 394 181 455 29 19 57 44 63 55 10 18 9 19 -17 9 -16 -6 -64 -17 -108 -24 -286 -45 -372 -60 -470 -82 -60 -14 -147 -33 -193 -44 -71 -16 -135 -40 -240 -92 -13 -6 -35 -21 -48 -34 -14 -12 -31 -20 -40 -16 -9 3 -14 0 -12 -7 2 -7 -15 -20 -37 -29 -22 -8 -46 -21 -52 -27 -7 -7 -26 -15 -43 -19 -16 -4 -33 -13 -37 -20 -5 -7 -36 -32 -71 -55 -34 -23 -60 -46 -56 -51 3 -5 -5 -9 -16 -9 -13 0 -24 -8 -27 -18 -2 -10 -24 -29 -49 -43 -29 -15 -54 -40 -70 -67 -14 -24 -61 -84 -105 -135 -44 -51 -101 -125 -127 -164 -28 -44 -56 -75 -69 -79 -16 -4 -23 -14 -23 -30 0 -14 -9 -37 -19 -52 -11 -15 -38 -72 -60 -127 -38 -96 -57 -194 -91 -455 -11 -82 -48 -222 -61 -231 -7 -4 -9 -14 -6 -23 4 -10 1 -16 -8 -16 -11 0 -15 -12 -15 -43 0 -35 -6 -49 -30 -72 l-30 -29 0 -118 c0 -65 3 -118 8 -118 11 0 70 111 91 173 15 43 18 72 14 134 -5 71 -3 83 21 127 14 27 26 55 26 62 0 9 11 14 29 14 l28 0 6 -87 c3 -49 2 -122 -3 -163 -5 -41 -9 -116 -10 -167 0 -50 -4 -103 -10 -117 -5 -14 -16 -67 -25 -118 -14 -80 -28 -117 -100 -263 -51 -102 -95 -208 -111 -264 -26 -93 -26 -96 -14 -211 l13 -116 46 -34 c25 -19 48 -38 51 -41 3 -3 32 -15 65 -27 33 -11 104 -37 158 -56 54 -20 111 -36 128 -36 72 0 552 -135 569 -160 3 -4 16 -10 30 -13 14 -3 56 -17 93 -31 37 -14 119 -35 181 -46 120 -22 330 -88 506 -159 58 -24 130 -47 160 -51 162 -25 203 -28 278 -18 59 8 102 8 182 -3 74 -10 220 -14 495 -14 368 0 394 -2 458 -21 76 -24 101 -42 128 -97 15 -29 17 -42 9 -57 -6 -11 -15 -20 -20 -20 -6 0 -10 -7 -10 -15 0 -12 14 -15 70 -15 l70 0 -16 -25 c-12 -18 -22 -24 -35 -20 -15 5 -19 1 -19 -20 0 -14 7 -28 16 -32 9 -3 77 24 162 65 81 39 176 82 212 95 92 35 380 177 380 187 0 5 6 7 14 4 14 -5 104 72 94 81 -3 3 -34 1 -69 -4 -46 -8 -101 -29 -191 -76 -70 -36 -133 -65 -140 -65 -7 0 -67 -28 -133 -61 -131 -67 -225 -111 -225 -105 0 8 95 57 245 128 385 181 408 194 437 240 l27 43 -52 3 -53 3 -22 92 c-13 51 -35 156 -51 233 -36 179 -66 238 -181 357 -84 86 -86 87 -165 107 -163 42 -306 62 -380 55 -170 -15 -352 -80 -380 -135 -13 -26 -20 -29 -82 -33 -89 -5 -237 -34 -241 -47 -2 -5 -27 -10 -55 -10 -29 -1 -82 -7 -118 -14 l-67 -12 -5 46 c-3 26 -22 89 -42 141 -33 84 -37 100 -31 155 4 34 22 111 41 170 19 60 35 123 35 140 0 18 8 38 20 49 15 13 20 31 20 69 1 28 5 71 10 96 5 25 12 104 16 175 4 72 10 135 14 140 4 6 13 45 19 88 19 117 43 181 70 185 27 4 64 -27 93 -79 11 -20 40 -54 65 -75 24 -21 65 -58 91 -80 26 -23 56 -45 67 -49 11 -4 52 -42 91 -84 75 -81 74 -77 90 -209 5 -42 10 -52 22 -50 30 6 32 73 5 146 -32 89 -40 100 -127 170 -41 33 -72 63 -69 66 4 3 -1 6 -10 6 -10 0 -17 8 -17 17 0 9 -3 14 -6 10 -3 -3 -18 5 -33 19 -14 14 -45 39 -68 56 -24 17 -43 35 -43 40 0 4 -7 8 -15 8 -9 0 -19 8 -22 18 -4 9 -25 36 -47 60 -66 71 -68 76 -51 196 8 58 19 154 24 213 7 77 17 123 33 158 22 47 69 118 94 140 6 6 28 36 49 68 21 33 44 61 52 64 19 7 44 -16 61 -57 7 -19 21 -43 29 -52 8 -9 28 -44 43 -77 16 -34 34 -61 40 -61 5 0 10 -5 10 -10 0 -6 24 -50 53 -98 29 -48 71 -122 92 -165 47 -94 65 -113 65 -68 0 17 -4 31 -8 31 -5 0 -26 37 -47 83 -21 45 -55 107 -75 137 -21 30 -48 74 -60 98 -13 23 -30 42 -37 42 -8 0 -11 5 -8 11 4 5 -5 27 -19 47 -78 113 -152 345 -114 356 106 31 187 92 252 190 44 66 99 116 130 116 13 0 31 8 40 19 16 18 14 21 -44 80 -83 84 -79 110 24 155 91 40 222 180 283 301 14 27 29 52 34 55 13 9 104 250 118 313 13 58 12 59 -13 86 -25 26 -26 29 -12 62 7 19 17 59 21 89 4 30 18 102 32 159 14 58 28 150 32 205 8 103 41 206 79 250 43 48 120 60 157 26 29 -27 49 -17 69 33 9 23 29 51 45 62 30 20 44 62 29 89 -12 21 -139 104 -168 109 -14 3 -45 1 -69 -4z m-326 -1395 c-22 -74 -134 -251 -202 -320 -127 -130 -191 -125 -150 13 10 36 24 50 92 99 105 74 120 88 166 156 74 107 118 132 94 52z m-1615 -372 c0 -10 -13 -38 -29 -63 -15 -25 -31 -62 -35 -82 -4 -21 -18 -70 -31 -110 -13 -40 -29 -108 -36 -152 -6 -44 -15 -101 -18 -128 -5 -34 -17 -57 -39 -80 -49 -50 -43 -64 27 -69 88 -6 195 -62 255 -132 69 -81 241 -206 339 -247 128 -53 200 -139 183 -222 -4 -18 -11 -61 -16 -97 -24 -186 -43 -280 -64 -330 -42 -96 -74 -278 -74 -420 0 -92 -5 -147 -20 -210 -33 -136 -71 -262 -90 -298 -16 -31 -19 -32 -59 -26 -41 6 -42 5 -62 -34 l-20 -40 43 -6 43 -7 7 -54 c3 -30 17 -85 31 -121 19 -50 21 -65 10 -61 -23 9 -54 -25 -63 -68 -7 -36 -12 -41 -46 -49 -45 -12 -186 4 -263 30 l-53 17 0 82 c0 65 6 97 29 162 41 111 64 241 57 317 -3 33 -10 169 -15 301 -4 132 -13 256 -20 275 -6 20 -11 100 -11 183 0 149 -13 217 -41 217 -9 0 -10 -21 -6 -82 6 -68 4 -85 -10 -100 -15 -17 -15 -18 5 -18 26 0 26 -2 8 -39 -27 -50 -153 -144 -284 -210 -78 -39 -383 -153 -397 -148 -6 3 -60 -4 -120 -14 -108 -18 -245 -25 -258 -13 -3 4 9 36 28 72 19 36 35 77 35 91 l-1 26 -33 -36 c-22 -24 -43 -64 -61 -120 -15 -46 -38 -105 -51 -131 -13 -26 -24 -53 -24 -60 0 -44 -58 -128 -158 -231 l-108 -113 -34 -104 c-33 -105 -65 -164 -114 -209 l-26 -25 -28 26 c-15 14 -37 31 -50 37 -19 10 -22 9 -21 -6 1 -34 15 -55 54 -82 36 -25 47 -45 25 -47 -5 -1 -24 -2 -41 -3 l-31 -1 7 -49 c6 -45 5 -51 -17 -62 -15 -9 -65 -13 -143 -14 -117 0 -121 1 -147 27 -25 24 -28 34 -28 93 0 100 23 172 116 366 140 292 164 422 164 890 0 335 5 376 59 533 26 75 26 81 -1 61 -18 -12 -27 -37 -43 -113 -20 -93 -22 -97 -48 -100 -27 -3 -28 -2 -21 35 30 168 80 299 157 413 89 130 251 335 321 406 109 108 273 237 354 278 37 19 110 59 162 90 151 90 234 115 538 167 103 18 216 38 252 45 91 17 100 17 100 -4z m-90 -1869 c0 -5 5 -35 11 -68 6 -33 12 -134 14 -225 1 -95 9 -205 19 -260 15 -88 15 -102 0 -189 -9 -52 -27 -128 -40 -170 -14 -41 -27 -110 -30 -155 -3 -45 -7 -92 -10 -105 -5 -26 -8 -26 -155 -1 -74 13 -77 12 -133 -13 -47 -22 -60 -33 -76 -69 -24 -52 -24 -67 -5 -104 30 -59 18 -64 -95 -39 -36 8 -81 14 -100 15 -21 0 -51 10 -72 25 -21 14 -66 36 -100 48 l-63 22 4 82 c3 69 -1 92 -20 138 l-23 55 21 68 c12 37 35 103 51 147 47 121 72 235 97 426 8 64 31 81 156 117 141 41 344 134 447 205 80 55 102 66 102 50z m-752 -312 c30 -19 -39 -385 -98 -518 -19 -42 -20 -43 -68 -43 -55 0 -78 -17 -67 -50 5 -17 13 -20 38 -18 l32 3 11 -75 c7 -41 15 -82 19 -92 5 -13 -4 -19 -50 -33 l-56 -16 3 -37 c3 -35 1 -37 -29 -40 -56 -6 -194 37 -240 75 l-42 34 18 47 c10 26 29 64 41 85 45 76 62 217 39 316 -9 41 -7 49 47 165 30 66 64 130 75 141 38 39 287 82 327 56z m-479 -483 c-5 -109 -25 -188 -47 -188 -5 0 -12 -15 -15 -32 -3 -18 -13 -50 -21 -70 l-16 -38 -84 0 c-75 0 -84 2 -89 20 -3 10 3 34 13 52 38 68 49 95 70 175 21 75 27 86 74 129 51 46 78 62 106 63 13 1 14 -15 9 -111z m2925 -269 c160 -36 208 -56 278 -113 95 -79 134 -143 169 -284 16 -64 34 -159 40 -212 7 -67 18 -111 37 -149 15 -30 28 -57 30 -61 1 -4 -41 -26 -95 -50 -54 -23 -204 -96 -333 -161 -129 -64 -247 -121 -262 -124 -26 -7 -27 -5 -30 41 -3 43 -7 51 -46 81 -83 63 -112 67 -557 69 -220 0 -517 6 -660 11 -303 12 -341 20 -620 128 -93 36 -199 73 -235 81 -36 9 -85 24 -110 34 -25 10 -70 24 -100 30 -30 6 -65 17 -77 25 -66 44 -302 175 -475 264 -175 91 -198 105 -207 134 -10 28 -9 34 11 50 20 15 38 17 124 15 95 -3 105 -5 155 -37 134 -85 180 -111 193 -111 27 0 272 -81 346 -115 71 -32 83 -34 210 -39 144 -5 268 -26 339 -57 33 -15 67 -19 143 -19 124 0 219 -14 311 -47 65 -23 94 -27 282 -34 126 -4 238 -13 280 -23 39 -9 97 -19 131 -22 53 -6 62 -4 68 11 3 10 5 19 4 20 -10 6 -309 45 -378 49 -293 18 -405 41 -567 117 -48 23 -122 54 -163 69 -49 19 -74 33 -71 42 36 115 71 204 83 206 8 2 54 -9 103 -23 50 -14 113 -25 149 -25 33 0 101 -7 149 -15 94 -15 147 -9 281 30 27 8 67 15 89 15 21 0 118 16 216 35 97 20 204 39 238 42 l62 6 3 36 c3 34 6 36 61 53 171 52 265 58 401 27z m-1924 -168 c0 -26 6 -32 45 -47 45 -17 50 -24 36 -58 -8 -20 -153 -78 -169 -67 -24 17 -42 60 -42 102 0 47 0 47 52 73 67 33 78 33 78 -3z m-885 -21 c131 -29 268 -76 365 -125 87 -44 101 -48 325 -75 147 -18 204 -30 279 -59 73 -30 81 -37 67 -60 -7 -11 -37 -7 -177 23 -123 28 -199 39 -279 41 -84 2 -123 8 -165 25 -30 12 -89 33 -132 46 -42 13 -101 35 -132 49 -31 14 -63 25 -71 25 -33 0 -124 43 -163 76 -71 60 -58 65 83 34z m-471 -118 c34 -21 108 -64 166 -94 58 -31 118 -70 134 -87 l30 -31 -24 0 c-13 0 -78 12 -144 26 -315 66 -496 134 -496 185 0 5 35 9 78 10 42 0 100 7 127 14 28 7 54 13 59 14 5 0 36 -16 70 -37z"
       id="path10" />
    <path
       d="M5083 6013 c-47 -28 -63 -42 -65 -62 -2 -17 -11 -27 -27 -31 -24 -6 -24 -7 22 -54 29 -30 49 -62 53 -83 7 -39 22 -42 62 -8 33 27 49 30 103 15 32 -9 39 -18 63 -73 31 -74 51 -166 66 -302 6 -55 18 -120 25 -145 8 -25 21 -88 30 -140 9 -52 21 -112 26 -132 6 -25 6 -50 -2 -80 -10 -35 -9 -61 5 -138 34 -182 120 -365 209 -445 26 -24 47 -47 47 -52 0 -4 39 -30 85 -58 72 -42 85 -53 85 -75 -1 -18 -12 -33 -39 -51 -27 -19 -43 -40 -54 -73 l-16 -46 29 -15 c16 -8 45 -15 65 -15 24 0 35 -4 35 -15 0 -8 4 -15 8 -15 5 0 21 -29 36 -64 20 -47 44 -80 91 -125 35 -34 72 -61 83 -61 32 0 55 -36 60 -94 4 -51 -10 -117 -30 -140 -22 -26 -78 -122 -78 -133 0 -7 -4 -13 -9 -13 -5 0 -19 -27 -31 -60 -12 -33 -26 -60 -31 -60 -4 0 -14 -18 -20 -41 -7 -23 -19 -43 -26 -46 -7 -3 -13 -20 -13 -39 0 -23 -6 -38 -20 -46 -11 -7 -20 -19 -20 -26 0 -7 -13 -27 -30 -45 -16 -18 -30 -38 -30 -44 0 -7 -5 -13 -10 -13 -6 0 -17 -18 -26 -39 -9 -23 -24 -41 -36 -44 -11 -3 -17 -10 -13 -16 4 -7 -3 -11 -18 -11 -21 0 -29 12 -62 93 -95 231 -174 356 -301 477 -130 122 -309 233 -414 255 -19 4 -51 15 -70 25 -58 29 -190 44 -319 36 -205 -11 -378 -63 -526 -156 -43 -27 -87 -50 -97 -50 -11 0 -18 -7 -18 -20 0 -11 -4 -20 -9 -20 -18 0 -141 -123 -197 -197 -33 -43 -62 -79 -66 -81 -4 -2 -24 -35 -45 -74 -20 -38 -47 -77 -60 -85 -18 -12 -23 -24 -23 -55 0 -23 -15 -82 -32 -132 l-33 -91 1 -225 c0 -257 7 -293 89 -485 59 -139 139 -260 232 -352 40 -40 73 -77 73 -83 0 -5 7 -10 15 -10 8 0 15 -4 15 -10 0 -5 5 -10 10 -10 11 0 25 -10 63 -45 33 -30 82 -62 108 -70 13 -4 49 -20 79 -35 30 -16 109 -45 175 -66 116 -37 125 -38 265 -39 126 0 159 4 251 28 152 39 262 85 354 147 102 68 253 206 285 260 14 23 35 53 48 68 13 14 52 85 87 157 110 225 145 424 121 687 l-9 97 70 78 c39 43 83 103 98 133 15 30 31 57 35 60 3 3 51 93 105 202 55 108 110 210 125 227 23 30 27 31 57 21 25 -9 42 -29 79 -91 25 -43 54 -102 65 -129 27 -71 49 -209 49 -304 0 -44 8 -118 17 -164 l17 -83 -100 -97 c-91 -87 -180 -167 -344 -308 -30 -26 -60 -60 -67 -76 -7 -15 -17 -28 -23 -28 -6 0 -10 -39 -10 -107 0 -83 -5 -123 -22 -173 -16 -49 -21 -87 -20 -157 l1 -92 -32 -19 c-67 -41 -206 -51 -334 -24 -24 5 -43 6 -43 3 0 -14 59 -39 121 -51 77 -15 138 -7 256 36 l73 27 -1 121 c0 96 4 134 20 185 13 40 21 90 21 135 0 99 30 159 109 218 73 55 195 163 288 256 61 60 78 72 105 72 l33 0 23 -102 c19 -87 22 -133 22 -298 0 -178 2 -197 20 -220 12 -15 20 -41 20 -64 0 -21 13 -95 30 -165 50 -216 49 -310 -4 -426 -21 -46 -22 -53 -8 -62 15 -9 15 -12 -1 -36 -16 -25 -23 -27 -87 -27 -38 0 -71 4 -74 8 -3 5 -49 13 -103 17 -54 4 -132 11 -173 14 -72 6 -75 7 -83 37 -8 26 -19 34 -92 63 -103 40 -248 81 -289 80 -85 0 -223 -11 -241 -19 -11 -4 -47 -11 -79 -14 -71 -8 -207 -51 -222 -72 -7 -8 -19 -12 -28 -8 -10 4 -16 2 -14 -4 2 -6 -27 -40 -63 -74 -53 -51 -69 -74 -83 -118 -10 -30 -21 -64 -26 -75 -26 -57 -43 -117 -51 -180 -18 -147 -36 -213 -66 -252 -16 -21 -49 -72 -73 -113 -25 -41 -57 -87 -72 -102 -15 -16 -35 -42 -43 -58 -9 -17 -22 -30 -29 -30 -14 0 -50 38 -71 75 -10 16 -12 16 -21 -6 -10 -21 -6 -31 28 -77 35 -48 43 -53 66 -47 15 4 29 11 30 16 2 5 10 15 17 22 7 8 30 47 50 88 21 41 43 77 49 81 19 13 73 9 86 -7 21 -26 23 -9 5 39 -17 45 -17 45 9 90 16 28 37 48 56 54 28 10 31 9 44 -17 22 -41 169 -176 218 -199 75 -35 88 -37 88 -10 0 18 -13 29 -62 53 -56 27 -152 110 -214 185 -11 14 -34 34 -49 46 l-29 20 18 105 c36 208 92 336 182 419 68 61 127 84 319 121 230 44 353 38 494 -27 l54 -24 -21 -23 c-12 -13 -22 -26 -22 -30 0 -11 73 -27 121 -27 25 0 59 -4 75 -10 32 -11 327 -40 403 -40 27 0 66 -7 87 -16 65 -27 178 -21 354 21 92 21 173 35 200 33 42 -3 45 -5 42 -30 -1 -15 4 -54 13 -87 8 -32 15 -76 15 -97 l0 -39 -73 -26 c-39 -15 -124 -48 -187 -75 l-115 -47 -175 -8 c-211 -10 -401 -27 -453 -40 -34 -9 -57 -32 -45 -44 3 -3 83 4 179 15 96 11 228 20 294 20 101 0 140 5 240 30 125 32 230 40 277 21 22 -8 41 -6 90 9 110 33 306 62 388 57 62 -4 82 -1 115 16 91 46 299 110 363 111 56 1 67 5 104 35 26 22 78 47 149 72 133 46 182 54 238 39 37 -10 41 -14 35 -33 -12 -42 -24 -50 -287 -193 -54 -29 -122 -60 -150 -70 -81 -26 -185 -78 -272 -135 -106 -69 -124 -76 -267 -100 -202 -33 -363 -76 -489 -129 -65 -28 -142 -55 -171 -60 -29 -6 -161 -9 -293 -7 -163 1 -276 -3 -353 -12 -94 -12 -133 -13 -235 -2 -67 7 -126 12 -132 12 -373 -18 -357 -16 -407 -47 -26 -15 -49 -38 -52 -49 -3 -12 -24 -54 -48 -94 l-42 -73 -44 6 c-53 7 -234 103 -467 246 -22 13 -26 13 -42 -2 -16 -17 -16 -19 2 -32 11 -8 43 -27 70 -42 28 -16 68 -42 90 -59 22 -16 102 -58 177 -92 136 -62 225 -91 238 -76 4 4 17 36 30 71 33 92 71 138 138 170 49 23 72 27 167 30 164 4 196 4 364 -2 112 -5 186 -2 275 10 148 19 291 21 371 4 107 -22 223 2 440 90 64 27 147 50 230 66 243 47 439 95 460 114 11 10 43 24 70 31 28 6 59 19 70 29 17 15 121 48 300 97 27 7 70 13 95 13 29 0 67 10 109 30 35 17 141 51 235 76 168 45 198 58 263 118 20 18 23 31 23 102 0 110 -24 244 -60 331 -64 153 -119 332 -135 433 -11 70 -19 197 -22 378 l-5 272 24 0 c23 0 26 -6 38 -62 16 -76 25 -89 41 -55 9 21 6 46 -19 149 -37 147 -68 308 -78 398 -3 36 -10 70 -14 75 -4 6 -10 24 -13 40 -20 104 -90 295 -108 295 -4 0 -10 12 -13 28 -4 15 -23 45 -44 67 -21 22 -50 62 -66 88 -15 26 -38 52 -52 57 -13 5 -24 14 -24 20 0 20 -212 229 -259 257 -25 14 -61 39 -79 55 -18 15 -37 28 -42 28 -9 0 -105 64 -152 102 -15 12 -30 19 -34 16 -14 -15 24 -51 130 -121 232 -154 422 -338 571 -553 80 -116 92 -140 122 -239 18 -60 33 -114 33 -118 0 -5 -16 0 -36 12 -45 27 -47 27 -31 -6 22 -43 47 -124 58 -189 5 -32 12 -252 15 -489 2 -236 9 -459 15 -495 5 -36 28 -117 50 -180 140 -397 141 -403 147 -491 l5 -86 -64 -17 c-44 -12 -92 -16 -154 -14 l-89 3 -11 39 c-6 21 -23 47 -38 58 -17 12 -27 29 -27 45 0 16 -17 44 -46 76 -54 61 -91 131 -129 247 -26 81 -31 89 -117 173 -81 81 -95 100 -149 210 -47 96 -64 144 -80 227 -17 84 -28 115 -57 158 -23 33 -41 51 -50 47 -7 -3 -16 -5 -18 -5 -11 0 -1 -27 22 -58 37 -47 64 -123 64 -177 0 -55 -2 -55 -125 -16 -49 16 -127 34 -173 40 -174 22 -416 124 -601 253 l-103 73 6 127 c3 71 2 129 -3 132 -19 12 -41 -44 -41 -101 0 -32 -9 -134 -20 -228 -12 -104 -20 -234 -20 -336 0 -112 -5 -194 -16 -250 -14 -74 -15 -104 -4 -244 10 -131 17 -172 40 -230 52 -132 59 -118 -87 -166 -91 -29 -152 -43 -210 -47 l-83 -5 0 47 c0 39 -5 51 -30 74 l-30 27 15 55 c8 30 15 82 15 114 0 69 -32 266 -62 381 -17 64 -22 127 -28 310 -7 204 -11 241 -34 325 -61 222 -77 297 -86 408 -4 64 -11 124 -15 133 -11 30 100 129 211 188 136 73 223 136 327 235 l89 84 96 18 c54 9 101 21 106 26 6 5 3 29 -7 61 -9 30 -17 80 -17 113 0 32 -7 91 -16 129 -9 39 -24 110 -34 158 -11 49 -32 111 -48 140 -16 29 -33 67 -36 84 l-8 33 49 -6 c26 -3 104 -17 173 -31 69 -14 145 -29 170 -33 75 -13 208 -50 314 -86 115 -39 149 -43 144 -17 -2 11 -21 22 -53 31 -28 8 -120 36 -205 62 -85 26 -177 51 -205 55 -27 4 -52 11 -55 15 -3 4 -74 17 -159 29 -115 15 -158 18 -173 10 -19 -11 -49 -9 -108 7 -20 5 -14 -5 32 -50 67 -66 112 -154 133 -258 9 -40 22 -100 30 -133 8 -33 15 -90 15 -126 0 -37 7 -83 16 -104 8 -20 14 -38 12 -40 -2 -1 -34 -12 -73 -25 -109 -35 -173 -74 -261 -158 -60 -57 -117 -98 -219 -156 -75 -43 -160 -97 -188 -119 l-50 -40 -24 29 c-34 43 -30 72 13 90 28 12 35 19 31 35 -3 11 3 39 14 62 26 58 26 107 -1 107 -17 0 -20 -7 -20 -38 0 -26 -7 -45 -20 -57 -14 -13 -20 -31 -20 -64 l-1 -46 -22 30 c-12 17 -50 65 -84 107 -60 73 -63 80 -69 145 -4 43 -2 79 6 98 6 17 11 32 11 35 -1 3 -21 12 -46 20 -68 23 -179 121 -232 204 -61 96 -81 116 -115 116 -34 0 -37 21 -9 67 16 25 29 33 65 38 34 5 47 13 52 28 7 21 -1 29 -64 75 -23 18 -26 28 -31 103 -8 112 -27 143 -113 189 -89 47 -100 59 -152 159 -61 118 -83 180 -101 286 -9 50 -26 131 -40 180 -30 113 -51 231 -65 364 -10 92 -34 177 -84 302 -10 23 -79 59 -114 59 -17 0 -43 -5 -57 -12 -23 -10 -28 -8 -60 28 -43 48 -44 87 -2 118 24 17 46 22 130 24 l102 4 101 -104 c112 -115 138 -160 180 -310 14 -51 38 -136 54 -188 16 -52 32 -113 36 -135 3 -22 12 -47 19 -55 7 -8 20 -42 30 -75 30 -106 73 -173 144 -227 32 -24 45 -27 110 -28 84 0 143 -26 181 -80 l22 -31 100 7 99 7 68 -70 67 -70 94 -17 c76 -14 104 -25 151 -57 66 -45 85 -68 129 -164 39 -85 51 -70 18 22 -41 118 -136 202 -256 229 -91 20 -125 36 -167 78 -74 75 -124 98 -195 89 -58 -7 -140 13 -140 33 0 19 -56 52 -99 58 -186 27 -177 23 -219 79 -21 29 -46 70 -54 93 -16 40 -16 42 5 64 l22 22 -23 -11 c-20 -11 -23 -9 -33 16 -20 54 -89 288 -89 304 0 9 -7 19 -15 23 -9 3 -15 19 -15 38 -1 18 -8 51 -16 73 -8 22 -23 67 -34 100 -12 37 -34 76 -56 100 -20 22 -42 52 -50 67 -17 33 -152 136 -202 154 -64 23 -120 16 -189 -23z m471 -1355 c3 -13 24 -51 47 -86 34 -52 54 -70 120 -108 44 -25 86 -55 94 -67 15 -21 21 -127 9 -140 -12 -11 -78 23 -117 61 -69 66 -146 176 -177 251 -33 82 -36 97 -17 104 25 11 35 7 41 -15z m-644 -1097 c320 -108 547 -312 683 -616 94 -209 115 -333 97 -565 -25 -326 -145 -590 -361 -796 -78 -74 -129 -109 -237 -163 -262 -132 -500 -160 -758 -91 -145 38 -212 68 -326 142 -175 114 -310 268 -398 454 -87 184 -120 332 -120 539 0 200 35 343 126 526 66 134 204 299 324 390 69 53 267 155 360 185 87 28 214 43 355 40 123 -3 137 -5 255 -45z m2302 -1181 c60 -48 330 -190 363 -190 9 0 26 -5 38 -12 12 -6 56 -21 97 -33 l75 -21 0 -107 c0 -59 3 -107 8 -107 4 0 7 -24 7 -53 0 -71 21 -147 80 -291 28 -67 50 -136 50 -156 0 -19 -14 -64 -30 -98 -40 -85 -39 -112 5 -151 l35 -30 -32 -18 c-60 -32 -110 -53 -126 -53 -8 0 -23 -7 -33 -16 -17 -15 -169 -44 -236 -44 -29 0 -33 4 -39 35 -3 20 -4 53 0 74 14 90 -82 134 -268 121 l-60 -4 -37 125 c-21 68 -44 165 -50 214 -12 98 -6 282 10 314 6 11 11 73 11 138 0 65 5 181 10 257 13 180 21 187 122 106z m772 -289 c91 -30 196 -88 196 -107 0 -6 24 -61 54 -121 51 -104 53 -113 45 -156 -11 -61 12 -269 42 -369 30 -101 23 -119 -58 -141 -32 -9 -83 -19 -114 -23 -56 -6 -56 -6 -76 29 -12 20 -42 47 -72 63 -48 27 -51 31 -45 59 9 38 8 102 -1 156 -6 37 -5 41 10 35 9 -3 28 -9 41 -12 22 -6 24 -3 24 30 0 40 -5 42 -57 21 -20 -9 -40 -12 -43 -8 -12 14 -59 140 -81 216 -13 47 -22 116 -26 198 -6 124 -5 126 18 142 32 23 44 22 143 -12z m411 -402 c40 -48 82 -139 106 -226 23 -84 31 -101 78 -151 52 -56 45 -62 -73 -62 l-104 0 -26 68 c-14 37 -32 96 -41 131 -18 71 -31 230 -22 255 11 27 53 19 82 -15z m170 -504 c0 -17 -13 -22 -85 -37 -154 -32 -211 -50 -262 -85 -37 -26 -81 -43 -162 -63 -61 -15 -155 -44 -209 -64 -114 -43 -170 -54 -327 -62 -63 -3 -124 -9 -135 -14 -11 -5 -62 -18 -113 -31 -71 -16 -96 -19 -105 -10 -19 19 4 44 54 60 24 8 47 19 50 24 12 17 231 58 329 61 63 1 105 7 125 18 17 9 91 43 166 77 121 54 148 62 235 71 108 12 165 25 206 46 35 18 120 32 183 31 43 -2 50 -5 50 -22z m-1143 -35 c11 -22 18 -58 18 -96 l0 -61 -82 5 c-100 5 -121 20 -116 86 3 35 6 41 28 44 64 7 70 11 60 38 -10 25 -9 25 33 22 37 -3 44 -7 59 -38z m1612 -111 c-31 -34 -135 -78 -249 -106 -61 -14 -150 -42 -199 -61 -50 -19 -116 -37 -150 -40 l-61 -5 19 22 c11 11 72 48 138 81 65 34 133 76 151 94 l32 33 169 1 c168 1 168 1 150 -19z"
       id="path12" />
    <path
       d="M4490 3493 c-111 -17 -269 -67 -370 -118 -53 -27 -103 -66 -192 -150 -66 -63 -131 -129 -144 -146 -30 -41 -148 -320 -169 -397 -23 -92 -21 -347 5 -443 46 -175 62 -224 87 -272 70 -140 206 -302 318 -382 76 -55 221 -125 258 -125 15 0 38 -7 51 -15 39 -26 155 -45 271 -45 118 0 197 15 304 56 36 14 90 35 119 46 206 80 410 323 503 596 43 126 59 235 58 391 0 142 -15 222 -68 366 -64 170 -218 374 -351 464 -76 51 -240 126 -330 150 -62 17 -230 44 -250 40 -3 -1 -48 -8 -100 -16z m109 -320 c-1 -301 -6 -374 -26 -380 -7 -3 -18 8 -24 24 -21 56 -68 250 -78 328 -6 44 -25 124 -41 179 -16 54 -27 102 -24 107 3 5 26 9 52 10 26 0 65 4 87 8 22 5 43 9 48 10 4 0 7 -128 6 -286z m159 261 c45 -10 72 -21 72 -29 0 -8 -16 -62 -34 -122 -19 -59 -40 -137 -46 -173 -7 -35 -17 -76 -24 -90 -7 -14 -16 -50 -20 -81 -9 -85 -43 -187 -66 -199 -19 -10 -20 -7 -20 54 0 35 7 101 16 147 13 69 15 122 9 303 l-8 219 24 -6 c13 -4 57 -14 97 -23z m-379 -67 c28 -136 45 -226 52 -272 4 -27 15 -70 24 -95 21 -58 65 -243 59 -249 -13 -13 -80 75 -126 164 -28 55 -64 119 -80 143 -16 23 -36 58 -44 77 -7 19 -32 62 -54 96 -27 41 -40 73 -40 96 0 33 1 34 35 27 30 -5 41 -1 78 28 43 36 67 48 79 41 4 -2 11 -27 17 -56z m609 -4 c40 -19 76 -41 78 -48 3 -8 -30 -68 -73 -134 -127 -196 -179 -282 -207 -346 -62 -138 -98 -125 -55 20 21 71 44 152 79 280 10 39 26 112 35 164 8 51 18 98 21 103 8 12 35 3 122 -39z m-851 -90 c11 -16 31 -55 46 -88 26 -60 108 -210 125 -231 5 -5 15 -21 22 -35 7 -13 16 -26 19 -29 14 -11 93 -153 101 -181 8 -26 6 -29 -14 -29 -14 0 -31 13 -46 33 -35 47 -208 234 -332 357 -60 59 -108 112 -108 118 0 7 18 19 40 28 24 10 48 29 61 50 26 43 60 45 86 7z m1062 -34 c31 -29 59 -60 63 -69 5 -14 -14 -36 -85 -98 -51 -44 -153 -142 -227 -217 -74 -75 -147 -143 -163 -151 l-27 -15 17 43 c9 24 44 86 78 138 71 110 152 244 179 298 48 94 67 122 88 122 11 0 46 -23 77 -51z m-1208 -166 c34 -43 133 -148 221 -233 109 -108 158 -163 158 -178 0 -12 -2 -22 -5 -22 -16 0 -90 45 -170 103 -50 35 -115 77 -145 92 -30 15 -68 37 -85 49 -16 12 -60 39 -97 59 l-66 37 50 85 c28 47 56 85 64 85 7 0 41 -35 75 -77z m1352 11 c3 -19 20 -51 36 -70 32 -36 41 -74 18 -74 -7 0 -40 -16 -73 -36 -32 -20 -90 -52 -129 -71 -38 -19 -83 -45 -100 -57 -42 -32 -267 -156 -282 -156 -7 0 -13 7 -13 15 0 17 289 302 364 359 28 21 51 44 51 51 0 8 10 27 23 44 18 25 30 31 61 31 36 0 39 -2 44 -36z m-1483 -190 c30 -14 64 -33 75 -43 11 -10 36 -27 55 -36 19 -10 44 -27 55 -37 11 -11 82 -56 157 -101 115 -67 136 -83 126 -95 -19 -22 -87 -10 -275 52 -92 30 -211 64 -262 76 -52 11 -99 24 -105 30 -6 6 2 27 22 60 18 28 32 59 32 68 0 9 3 27 6 40 8 28 27 25 114 -14z m1610 -37 c0 -43 6 -61 30 -94 17 -23 27 -44 23 -46 -4 -3 -42 -12 -83 -22 -41 -9 -118 -28 -170 -40 -52 -13 -109 -26 -127 -29 -18 -3 -75 -22 -128 -41 -81 -31 -103 -35 -133 -28 l-37 9 26 26 c15 15 85 56 157 92 71 36 169 91 218 122 117 75 172 104 200 104 22 0 24 -4 24 -53z m-1605 -217 c74 -22 162 -47 197 -55 108 -25 238 -61 244 -68 4 -4 1 -13 -6 -22 -17 -20 -125 -20 -272 1 -82 12 -147 14 -239 10 l-127 -7 1 91 1 90 34 0 c18 0 94 -18 167 -40z m1666 11 c4 -3 3 -28 0 -56 -5 -37 -2 -61 12 -93 10 -24 17 -46 15 -51 -2 -4 -70 1 -153 10 -83 10 -228 18 -323 18 -173 1 -173 1 -170 23 3 20 17 25 133 51 72 15 159 35 195 44 36 8 85 19 110 22 25 4 63 17 85 28 37 20 79 22 96 4z m-1190 -212 c6 -12 7 -24 2 -28 -8 -8 -73 -22 -183 -41 -130 -23 -316 -72 -359 -96 -28 -16 -59 -24 -90 -24 l-46 0 0 73 c0 39 -4 85 -8 101 l-8 29 263 -6 c145 -3 292 -2 328 2 36 5 70 9 77 10 7 0 17 -8 24 -20z m1127 -25 c83 -7 95 -18 67 -66 -13 -22 -15 -40 -10 -75 l7 -46 -44 6 c-24 3 -76 20 -117 37 -40 17 -136 44 -212 60 -155 32 -264 78 -218 92 25 7 403 1 527 -8z m-1144 -78 c-10 -25 -71 -66 -167 -110 -50 -24 -146 -79 -212 -124 -88 -58 -133 -82 -165 -87 l-45 -6 -18 78 c-26 117 -25 119 31 128 26 4 151 33 277 65 299 76 307 77 299 56z m666 -7 c9 -4 49 -16 90 -27 41 -11 121 -36 177 -56 56 -19 130 -39 165 -43 l63 -8 3 -36 c2 -29 -2 -39 -22 -53 -23 -15 -26 -23 -26 -76 l0 -60 -27 6 c-16 3 -55 24 -88 47 -188 129 -248 167 -323 207 -85 46 -152 94 -152 111 0 11 115 1 140 -12z m-126 -63 c39 -16 156 -105 156 -119 0 -5 6 -7 14 -4 8 3 21 -4 29 -17 8 -12 70 -49 138 -83 68 -34 141 -76 163 -95 l38 -33 -41 -49 c-22 -28 -43 -62 -46 -78 -13 -56 -61 -32 -144 71 -38 48 -135 151 -215 228 -115 111 -146 147 -146 167 0 30 8 31 54 12z m-524 -26 c0 -21 -33 -60 -86 -101 -31 -24 -54 -49 -54 -60 0 -11 -5 -19 -11 -19 -16 0 -193 -175 -236 -232 -20 -28 -43 -48 -53 -48 -22 0 -50 36 -50 65 0 12 -17 32 -40 49 -36 27 -38 31 -25 46 9 10 39 30 68 45 28 15 66 38 84 51 17 13 38 24 45 24 8 0 47 21 88 46 85 52 251 144 263 144 4 0 7 -5 7 -10z m116 -25 c-3 -8 -41 -66 -84 -127 -44 -62 -101 -151 -128 -198 -26 -47 -58 -97 -69 -111 -12 -15 -37 -59 -56 -98 -19 -39 -37 -71 -41 -71 -4 0 -34 27 -67 60 -33 33 -65 60 -71 60 -23 0 15 43 216 246 113 115 213 219 221 232 18 27 90 33 79 7z m434 -109 c42 -44 100 -108 127 -141 28 -33 70 -78 93 -100 23 -22 64 -65 91 -96 l49 -57 -46 -27 c-25 -15 -55 -42 -66 -61 -13 -23 -27 -34 -42 -34 -19 0 -29 15 -61 88 -49 109 -148 292 -191 352 -39 55 -84 138 -84 157 0 31 56 -4 130 -81z m-130 -1 c28 -47 73 -131 99 -187 27 -57 81 -157 120 -222 39 -66 71 -123 71 -127 0 -17 -32 -31 -59 -26 -21 5 -40 -1 -73 -22 -25 -16 -59 -32 -76 -36 l-31 -6 -4 88 c-2 48 -12 115 -21 148 -8 33 -23 89 -31 125 -9 36 -24 101 -35 145 -17 71 -27 205 -16 205 3 0 28 -38 56 -85z m-324 -170 c-64 -199 -96 -327 -96 -384 0 -32 -23 -52 -50 -43 -8 2 -28 17 -45 33 -24 22 -41 29 -82 31 l-52 3 87 142 c48 78 116 194 151 257 71 128 143 216 148 181 2 -11 -25 -110 -61 -220z m224 170 c0 -36 6 -81 14 -100 8 -18 12 -35 10 -38 -3 -3 4 -42 15 -88 37 -156 81 -367 81 -388 0 -18 -6 -21 -43 -21 -24 0 -66 -7 -92 -15 -27 -8 -50 -13 -50 -12 -1 1 2 72 6 157 4 85 8 248 8 363 l1 207 25 0 c24 0 25 -2 25 -65z m-98 -337 c-2 -178 -6 -324 -7 -326 -2 -2 -21 6 -44 17 -26 14 -59 21 -97 21 -49 0 -55 2 -49 18 30 77 68 207 90 312 14 69 35 160 46 203 19 67 24 77 44 77 l22 0 -5 -322z"
       id="path14" />
    <path
       d="M4600 4894 c-72 -51 -150 -148 -150 -186 0 -8 -9 -23 -19 -32 -29 -26 -45 -102 -28 -127 14 -19 15 -18 20 11 6 26 11 30 41 30 l35 0 -14 -41 c-22 -62 -19 -124 7 -160 21 -27 23 -40 20 -131 l-3 -100 24 4 c27 5 28 2 43 -188 l7 -81 38 11 c33 9 41 16 49 46 5 19 10 65 10 103 0 60 2 67 20 67 13 0 20 7 20 19 0 13 9 21 30 26 l30 7 0 98 c0 103 3 110 51 110 23 0 22 -7 4 80 -15 72 -14 90 8 90 35 1 37 16 13 86 -13 39 -35 93 -50 120 -14 27 -26 54 -26 60 0 20 -101 104 -124 103 -11 0 -37 -12 -56 -25z"
       id="path16" />
    <path
       d="M8978 2388 c-20 -31 -29 -83 -29 -170 0 -62 3 -75 20 -89 12 -10 21 -29 21 -43 0 -14 5 -26 10 -26 6 0 10 -9 10 -20 0 -21 20 -25 55 -10 18 7 19 8 3 15 -16 6 -18 23 -18 136 0 124 -1 132 -29 180 -28 50 -28 50 -43 27z"
       id="path18" />
    <path
       d="M3272 1948 c-15 -15 -16 -82 -1 -109 18 -34 13 -73 -15 -133 -26 -55 -27 -58 -9 -72 31 -24 116 -64 135 -64 11 0 32 -10 48 -21 26 -20 37 -21 132 -16 57 3 117 11 133 18 27 12 19 14 -100 19 -111 4 -140 9 -200 33 -38 15 -77 31 -85 36 -18 10 -15 66 5 97 12 18 12 31 0 80 -8 33 -14 78 -15 102 0 43 -7 51 -28 30z"
       id="path20" />
  </g>
  <path
     style="fill:#000000;stroke:#000000;stroke-width:1px;stroke-linecap:butt;stroke-linejoin:miter;stroke-opacity:1"
     d="m 377.92847,202.33246 c 3.8896,0.21039 18.04246,-8.04539 14.97028,-16.421 -6.66899,-0.83362 -10.56247,0.15956 -10.56247,0.15956"
     id="path3001"
     inkscape:connector-curvature="0"
     transform="scale(0.8,0.8)"
     sodipodi:nodetypes="ccc" />
  <path
     style="fill:#000000;stroke:#000000;stroke-width:0.80000001px;stroke-linecap:butt;stroke-linejoin:miter;stroke-opacity:1"
     d="m 254.1503,210.67857 c -8.30582,-1.92309 -13.23048,-11.43916 -16.31839,-15.9712 l 3.81919,-2.0832 c 0.0311,-0.017 4.86577,16.12546 15.2768,14.2352"
     id="path3791"
     inkscape:connector-curvature="0"
     sodipodi:nodetypes="ccsc" />
  <path
     style="fill:#000000;stroke:#000000;stroke-width:0.80000001px;stroke-linecap:butt;stroke-linejoin:miter;stroke-opacity:1"
     d="m 293.90467,240.53775 c -8.30581,-1.92309 -5.93928,-2.06475 -9.02719,-6.59679 l 0.69439,-4.1664 c 5.4131,6.73006 7.49032,5.07331 11.1104,6.24959"
     id="path3791-7"
     inkscape:connector-curvature="0"
     sodipodi:nodetypes="cccc" />
  <path
     style="fill:#000000;stroke:#000000;stroke-width:0.80000001px;stroke-linecap:butt;stroke-linejoin:miter;stroke-opacity:1"
     d="m 281.40548,289.84013 c -3.40972,-4.37113 -0.61414,-0.73452 -3.8192,-5.20799 l -6.2496,-14.5824 c 11.60391,9.84178 8.48534,10.95373 10.416,10.76319"
     id="path3791-4"
     inkscape:connector-curvature="0"
     sodipodi:nodetypes="cccc" />
  <path
     style="fill:#000000;stroke:#000000;stroke-width:0.80000001px;stroke-linecap:butt;stroke-linejoin:miter;stroke-opacity:1"
     d="m 214.0818,240.9656 c 1.62721,-7.98908 2.7141,-29.50891 5.9024,-31.24799 l 3.81919,-2.0832 c 3.04895,-1.66307 -11.21378,25.6595 -4.1664,30.90079"
     id="path3791-0"
     inkscape:connector-curvature="0"
     sodipodi:nodetypes="cssc" />
  <path
     style="fill:#000000;stroke:#000000;stroke-width:0.80000001px;stroke-linecap:butt;stroke-linejoin:miter;stroke-opacity:1"
     d="m 616.84972,164.15637 c -3.11168,0.16831 -14.43397,-6.43631 -11.97623,-13.1368 5.33519,-0.6669 8.44998,0.12765 8.44998,0.12765"
     id="path3001-9"
     inkscape:connector-curvature="0"
     sodipodi:nodetypes="ccc" />
  <path
     style="fill:#000000;stroke:#000000;stroke-width:0.80000001px;stroke-linecap:butt;stroke-linejoin:miter;stroke-opacity:1"
     d="m 662.95899,212.27457 c 8.30582,-1.92309 13.23048,-11.43916 16.31839,-15.9712 l -3.81919,-2.0832 c -0.0311,-0.017 -4.86577,16.12546 -15.2768,14.2352"
     id="path3791-48"
     inkscape:connector-curvature="0"
     sodipodi:nodetypes="ccsc" />
  <path
     style="fill:#000000;stroke:#000000;stroke-width:0.80000001px;stroke-linecap:butt;stroke-linejoin:miter;stroke-opacity:1"
     d="m 634.31502,243.52255 c 8.30581,-1.92309 5.93928,-2.06475 9.02719,-6.59679 l -0.69439,-4.1664 c -5.4131,6.73006 -7.49032,5.07331 -11.1104,6.24959"
     id="path3791-7-8"
     inkscape:connector-curvature="0"
     sodipodi:nodetypes="cccc" />
  <path
     style="fill:#000000;stroke:#000000;stroke-width:0.80000001px;stroke-linecap:butt;stroke-linejoin:miter;stroke-opacity:1"
     d="m 705.80509,239.0896 c -1.62721,-7.98908 -2.7141,-29.50891 -5.9024,-31.24799 l -3.81919,-2.0832 c -3.04895,-1.66307 11.21378,25.6595 4.1664,30.90079"
     id="path3791-0-4"
     inkscape:connector-curvature="0"
     sodipodi:nodetypes="cssc" />
</svg>
